<?xml version="1.0" encoding="UTF-8"?>
<svg xmlns="http://www.w3.org/2000/svg" xmlns:xlink="http://www.w3.org/1999/xlink" width="32px" height="32px" viewBox="0 0 32 32" version="1.1">
<g id="surface1">
<path style=" stroke:none;fill-rule:nonzero;fill:rgb(96.078431%,21.960784%,21.960784%);fill-opacity:1;" d="M 28.082031 11.789062 L 28.0625 11.769531 C 28.0625 11.769531 28.058594 11.765625 28.058594 11.765625 L 15.777344 -0.132812 L 3.5 11.765625 C 3.496094 11.765625 3.496094 11.769531 3.496094 11.769531 L 3.472656 11.789062 C 1.597656 13.617188 0.402344 16.003906 0.0859375 18.5625 C -0.234375 21.125 0.34375 23.714844 1.71875 25.925781 C 3.09375 28.132812 5.195312 29.832031 7.683594 30.753906 C 10.171875 31.671875 12.90625 31.761719 15.449219 31.003906 C 15.664062 30.941406 15.894531 30.941406 16.105469 31.003906 C 18.652344 31.761719 21.386719 31.671875 23.875 30.753906 C 26.363281 29.832031 28.460938 28.132812 29.835938 25.925781 C 31.214844 23.714844 31.789062 21.125 31.472656 18.5625 C 31.152344 16.003906 29.960938 13.617188 28.082031 11.789062 Z M 7.863281 19.632812 C 7.804688 19.691406 7.757812 19.761719 7.726562 19.835938 C 7.691406 19.910156 7.675781 19.992188 7.675781 20.074219 C 7.699219 22.175781 8.3125 24.226562 9.449219 26.015625 C 9.472656 26.054688 9.484375 26.105469 9.480469 26.152344 C 9.480469 26.199219 9.460938 26.242188 9.425781 26.28125 C 9.394531 26.316406 9.351562 26.34375 9.304688 26.355469 C 9.257812 26.363281 9.207031 26.363281 9.160156 26.34375 C 8.308594 25.996094 7.53125 25.488281 6.875 24.851562 C 5.53125 23.550781 4.777344 21.789062 4.777344 19.949219 C 4.777344 18.109375 5.527344 16.34375 6.867188 15.042969 L 15.777344 6.414062 L 24.6875 15.042969 C 26.027344 16.34375 26.78125 18.109375 26.78125 19.949219 C 26.78125 21.789062 26.023438 23.550781 24.683594 24.851562 C 24.027344 25.488281 23.25 25.996094 22.394531 26.34375 C 22.351562 26.363281 22.300781 26.363281 22.25 26.355469 C 22.203125 26.34375 22.160156 26.316406 22.128906 26.28125 C 22.097656 26.242188 22.078125 26.199219 22.074219 26.152344 C 22.070312 26.105469 22.082031 26.054688 22.109375 26.015625 C 23.246094 24.226562 23.859375 22.175781 23.882812 20.074219 C 23.882812 19.992188 23.863281 19.910156 23.832031 19.835938 C 23.800781 19.761719 23.753906 19.691406 23.691406 19.632812 L 19.476562 15.304688 C 19.4375 15.269531 19.382812 15.25 19.328125 15.25 C 19.273438 15.25 19.222656 15.269531 19.179688 15.304688 C 19.136719 15.335938 19.109375 15.382812 19.097656 15.4375 C 19.089844 15.488281 19.097656 15.542969 19.125 15.585938 C 20.761719 18.457031 19.355469 22.578125 17.007812 24.851562 L 16.996094 24.863281 C 16.671875 25.175781 16.234375 25.347656 15.777344 25.347656 C 15.324219 25.347656 14.886719 25.175781 14.5625 24.863281 L 14.550781 24.851562 C 12.203125 22.578125 10.796875 18.457031 12.433594 15.589844 C 12.460938 15.542969 12.46875 15.488281 12.460938 15.4375 C 12.449219 15.382812 12.421875 15.335938 12.378906 15.304688 C 12.335938 15.269531 12.285156 15.25 12.230469 15.25 C 12.175781 15.25 12.121094 15.269531 12.078125 15.304688 Z M 7.863281 19.632812 "/>
</g>
</svg>
