<?xml version="1.0" encoding="UTF-8" standalone="no"?>
<svg
   width="32"
   height="32"
   viewBox="0 0 71 18"
   fill="none"
   version="1.1"
   id="svg4"
   sodipodi:docname="LogoWithoutTextEdit.svg"
   inkscape:version="1.2.1 (9c6d41e410, 2022-07-14, custom)"
   xmlns:inkscape="http://www.inkscape.org/namespaces/inkscape"
   xmlns:sodipodi="http://sodipodi.sourceforge.net/DTD/sodipodi-0.dtd"
   xmlns="http://www.w3.org/2000/svg"
   xmlns:svg="http://www.w3.org/2000/svg">
  <defs
     id="defs8" />
  <sodipodi:namedview
     id="namedview6"
     pagecolor="#ffffff"
     bordercolor="#000000"
     borderopacity="0.25"
     inkscape:showpageshadow="2"
     inkscape:pageopacity="0.0"
     inkscape:pagecheckerboard="0"
     inkscape:deskcolor="#d1d1d1"
     showgrid="false"
     inkscape:zoom="25.09375"
     inkscape:cx="15.820672"
     inkscape:cy="16.996264"
     inkscape:window-width="1920"
     inkscape:window-height="1050"
     inkscape:window-x="0"
     inkscape:window-y="30"
     inkscape:window-maximized="1"
     inkscape:current-layer="svg4" />
  <path
     d="m 62.018438,0.41393379 -0.04208,-0.0421969 c -0.0037,-0.002338 -0.0063,-0.00553 -0.0077,-0.009207 L 35.572164,-26.034318 9.1762094,0.36187913 c -0.0031,0.003063 -0.0078,0.009158 -0.0078,0.009158 l -0.04356,0.0421969 C 5.0885185,4.4722044 2.5247734,9.7639096 1.8411386,15.447179 c -0.683639,5.683517 0.5520753,11.432206 3.510705,16.332842 2.9586128,4.900225 7.4703244,8.671498 12.8179624,10.712846 5.347635,2.04176 11.224274,2.237273 16.695736,0.555193 0.460409,-0.140661 0.952533,-0.140661 1.412983,0 5.471214,1.681256 11.347359,1.485742 16.694707,-0.556018 5.347347,-2.042171 9.858606,-5.812622 12.816889,-10.712846 2.958284,-4.900224 4.194477,-10.6485 3.511004,-16.331604 C 68.617648,9.7646109 66.054107,4.4729055 62.018433,0.41392815 Z M 18.562282,17.820576 c -0.128521,0.12828 -0.230409,0.281309 -0.299912,0.448775 -0.06954,0.167878 -0.105303,0.347718 -0.105303,0.529207 0.04698,4.658925 1.363606,9.216381 3.808191,13.182758 0.05553,0.08993 0.08117,0.195513 0.07333,0.300695 -0.0077,0.105174 -0.04889,0.205414 -0.117186,0.286259 -0.06827,0.08084 -0.160333,0.137759 -0.262994,0.162921 -0.102675,0.02515 -0.210653,0.01741 -0.308576,-0.02227 -1.837739,-0.773395 -3.50728,-1.896982 -4.915187,-3.308477 -2.885275,-2.885687 -4.50734,-6.798854 -4.509939,-10.879487 -0.0026,-4.080632 1.614393,-7.995944 4.495997,-10.885302 L 35.572164,-11.513986 54.722552,7.635659 c 2.881973,2.888987 4.499708,6.804258 4.49682,10.885302 -0.0021,4.080633 -1.624745,7.9938 -4.510021,10.879487 -1.407784,1.411495 -3.077488,2.535082 -4.91466,3.308477 -0.09818,0.0396 -0.206239,0.04744 -0.308945,0.02227 -0.102707,-0.02515 -0.194688,-0.0825 -0.26316,-0.16292 -0.06806,-0.08084 -0.109317,-0.181077 -0.117153,-0.286671 -0.0077,-0.10519 0.01777,-0.210777 0.07343,-0.300697 2.44475,-3.965963 3.7622,-8.523419 3.810049,-13.182343 0,-0.18149 -0.03631,-0.36133 -0.106013,-0.52962 -0.07012,-0.167878 -0.172001,-0.320082 -0.301107,-0.448775 L 43.523387,8.2121378 c -0.09034,-0.07536 -0.203764,-0.116565 -0.321321,-0.116565 -0.117154,0 -0.230987,0.041207 -0.320907,0.116565 -0.09034,0.074947 -0.150964,0.1795925 -0.171999,0.2951273 -0.02144,0.1155767 -0.0012,0.234493 0.05693,0.3367459 3.518014,6.366414 0.492497,15.511023 -4.552302,20.556438 l -0.0266,0.02681 c -0.696304,0.688835 -1.63634,1.074913 -2.615725,1.074501 -0.979508,-4.12e-4 -1.919295,-0.387316 -2.615101,-1.076152 l -0.02451,-0.02516 C 27.885038,24.355033 24.861378,15.211249 28.380011,8.8453715 c 0.05787,-0.1022538 0.07804,-0.2211701 0.05696,-0.3367461 -0.02104,-0.1155348 -0.08191,-0.22018 -0.17209,-0.2951269 -0.09016,-0.07536 -0.203805,-0.1165651 -0.321237,-0.1165651 -0.117428,0 -0.23111,0.041207 -0.321278,0.1165651 z"
     fill="#f53838"
     id="path2"
     style="stroke-width:4.12477" />
</svg>
